<svg id="Layer_1" data-name="Layer 1" xmlns="http://www.w3.org/2000/svg" xmlns:xlink="http://www.w3.org/1999/xlink" viewBox="0 0 563.16 440.64"><defs><style>.cls-1,.cls-24,.cls-40{fill:#3d97d3;}.cls-1{opacity:0.44;}.cls-1,.cls-26,.cls-3,.cls-30,.cls-31,.cls-39,.cls-40{isolation:isolate;}.cls-2{fill:#d5a57e;}.cls-3{fill:#a88f7c;}.cls-26,.cls-3{opacity:0.3;}.cls-4{fill:#fcc8a1;}.cls-5{fill:#ccc;}.cls-6{fill:#1c1c1f;}.cls-7{fill:#193581;}.cls-8{fill:#f0b990;}.cls-9{fill:#010101;}.cls-10{fill:#6ac39c;}.cls-11{fill:#2579ba;}.cls-12{fill:#127985;}.cls-13{fill:#28579c;}.cls-14{fill:#edeff0;}.cls-15{fill:#17283d;}.cls-16{fill:url(#linear-gradient);}.cls-17{fill:url(#linear-gradient-2);}.cls-18{fill:url(#linear-gradient-3);}.cls-19,.cls-26,.cls-37{fill:#fff;}.cls-20{fill:#1a222c;}.cls-21,.cls-39{fill:#2d3641;}.cls-22{fill:#f3f6fa;}.cls-23{fill:url(#linear-gradient-4);}.cls-25{fill:#e5e8ec;}.cls-27{fill:url(#linear-gradient-5);}.cls-28{fill:url(#linear-gradient-6);}.cls-29{fill:#c5d6e7;}.cls-30{opacity:0.25;fill:url(#linear-gradient-7);}.cls-31{fill:#39c2d6;opacity:0.21;}.cls-32{fill:#f5ce28;}.cls-33{fill:#2e4476;}.cls-34{fill:url(#linear-gradient-8);}.cls-35{fill:url(#linear-gradient-9);}.cls-36{fill:url(#linear-gradient-10);}.cls-37{opacity:0.72;}.cls-38{fill:#12171c;}.cls-39{opacity:0.5;}.cls-40{opacity:0.4;}</style><linearGradient id="linear-gradient" x1="112.49" y1="-1985.48" x2="173.03" y2="-1985.48" gradientTransform="matrix(1, 0, 0, -1, 0, -1752.27)" gradientUnits="userSpaceOnUse"><stop offset="0" stop-color="#f9a147"/><stop offset="0.99" stop-color="#ffd260"/></linearGradient><linearGradient id="linear-gradient-2" x1="125.22" y1="-1992.05" x2="131.45" y2="-1992.05" xlink:href="#linear-gradient"/><linearGradient id="linear-gradient-3" x1="122.61" y1="-2000.59" x2="163.64" y2="-2000.59" xlink:href="#linear-gradient"/><linearGradient id="linear-gradient-4" x1="304.26" y1="-1967.11" x2="314.03" y2="-1967.11" xlink:href="#linear-gradient"/><linearGradient id="linear-gradient-5" x1="290.49" y1="-2081.94" x2="371.45" y2="-2081.94" xlink:href="#linear-gradient"/><linearGradient id="linear-gradient-6" x1="285.66" y1="-2081.94" x2="366.63" y2="-2081.94" xlink:href="#linear-gradient"/><linearGradient id="linear-gradient-7" x1="393.54" y1="-1964.92" x2="476.87" y2="-1964.92" gradientTransform="matrix(0.19, 0.98, 0.98, -0.19, 2281, -589.48)" xlink:href="#linear-gradient"/><linearGradient id="linear-gradient-8" x1="381.48" y1="-1976.1" x2="453.93" y2="-1976.1" xlink:href="#linear-gradient"/><linearGradient id="linear-gradient-9" x1="379.31" y1="-1976.1" x2="451.75" y2="-1976.1" xlink:href="#linear-gradient"/><linearGradient id="linear-gradient-10" x1="430.43" y1="-1978.18" x2="438.88" y2="-1978.18" gradientTransform="matrix(0, 1, 1, 0, 2411.51, -214.62)" xlink:href="#linear-gradient"/></defs><g id="Layer_1-2" data-name="Layer 1"><path class="cls-1" d="M74.78,364.69C32.32,364.76-2,329.43.09,287c2-39.06,24.09-73.89,56.09-97.66,53.19-39.5-6.85-121.22,99-154.49,54.76-17.2,102.92,29.71,156.59,31.75,48.1,1.9,97.85-39.53,146.68-20.36,32.66,11,65.31,42,62.9,79-1.26,19.13-12.39,41.78-.86,56.28,30.71,38.68,40,74.31,38,112.26C556.28,333.2,523.52,364,484.07,364Z"/><path class="cls-2" d="M191.61,214.88l1.65,9,11-3-6.51-26.59a39.42,39.42,0,0,0-3.44-5.05.24.24,0,0,1-.08-.06c-.88-.76-8.52-3.1-12.34-4.63a11.15,11.15,0,0,1-1.82-.85v-8.21H168.21v8.21c-2.05,1.31-12.76,4.24-14.23,5.52-.59.52-3,3.83-3,3.83l-7,27.83,10.93,2.4,1.79-9.38c-.07,2.95.61,9.75,0,16.95-1,10.69-2.6,22.5-2.6,22.5L195,253s-2.15-12-3.13-22.93C191.28,223.78,191.67,217.5,191.61,214.88Z"/><path class="cls-3" d="M181.92,184.54a15.35,15.35,0,0,1-1.82,1.39,2.47,2.47,0,0,1-.46.23h-4c-1.11-.28-5-4-5-4a23.54,23.54,0,0,1-2.46-5.91v-.72H180.1v8.21A13.11,13.11,0,0,0,181.92,184.54Z"/><polygon class="cls-4" points="203.53 220.98 203.97 231.58 203.71 253.39 198.38 251.6 196.52 231.47 193.88 222.17 203.53 220.98"/><path class="cls-2" d="M199.79,258.22l-.07-1.78a.86.86,0,0,0-.1-.33,3.47,3.47,0,0,0-.07-.79,1.51,1.51,0,0,0,.73-.32,10,10,0,0,0,1.16-1.28c.1-.11.18-.24.27-.35a.85.85,0,0,0,.26-.24c.37.45.7.92,1,1.38.09.14.19.29.29.42l-.64,1c0,1.23-.1,4-.1,4l-1.3,2.57s-.42,2.32-.89,2.54a.65.65,0,0,1-.57-.32,2.19,2.19,0,0,1-.45-1.71l.59-1.91Z"/><path class="cls-4" d="M197.77,260.94a.93.93,0,0,1-.88-.94c-.07-.47-.15-1.31-.15-1.31h0l-.22-1.95c.19-.34,1.46-5.32,1.46-5.32l.88-2.21,3.21.16c0,.08.6,4.3-.55,5.06a21.51,21.51,0,0,0-3.07,3v1.72C198.61,260.54,198.2,260.9,197.77,260.94Z"/><path class="cls-4" d="M200.72,249.5l1.1.73,1.33,1.2,2.06,5.92-1.92,4.91-2.56,2.61a.52.52,0,1,1-.85-.6l.05-.06,2.33-4.17s.35-5.52-1.68-4.79C199.32,255.63,200.75,249.5,200.72,249.5Z"/><path class="cls-5" d="M158.25,326a27,27,0,0,0-.46,5.75c.19,1.1,1.6,3.83,2.38,4.3a5.63,5.63,0,0,0,5.06,0c1.19-.55,3.79-3.79,4.29-5.26A21.14,21.14,0,0,0,170,326Z"/><path class="cls-6" d="M158.41,324.63a25.77,25.77,0,0,0-.47,5.75c.19,1.1,1.59,3.83,2.39,4.3a5.59,5.59,0,0,0,5,0,14.08,14.08,0,0,0,4.3-5.26,22.43,22.43,0,0,0,.49-4.83Z"/><path class="cls-7" d="M154.58,252.41c0,.92.16,1.83.23,2.72.29,4.26.37,8.54.65,12.81s.46,8.35,1,12.5c.08.62.18,1.24.26,1.85l.37,5.9v2.68c-.09.32-.15.65-.23,1a39.18,39.18,0,0,0-.75,7.24,170.85,170.85,0,0,0,.24,17.82c.09,1.55.22,3.08.41,4.62.12,1,.59,4.41.59,4.41s13.24.64,13.62.1c.6-.86.59-2.81.66-3.81.11-1.58.17-3.14.18-4.73,0-3.31.32-6.62.35-9.86s-.06-6.36-.13-9.54c0-1.58-.18-3.15-.27-4.71a24.05,24.05,0,0,0-.1-2.55l.11-2,.63-10.93c.54-3.36.8-17.65,1.66-21.19.35-1.45.87-2.84,1.27-4.27Z"/><path class="cls-5" d="M191.09,326a27,27,0,0,1,.47,5.75c-.19,1.1-1.59,3.83-2.38,4.3a5.63,5.63,0,0,1-5.06,0c-1.19-.55-3.8-3.79-4.29-5.26a23,23,0,0,1-.5-4.82Z"/><path class="cls-6" d="M190.94,324.63a26.37,26.37,0,0,1,.46,5.75c-.19,1.1-1.59,3.83-2.38,4.3a5.59,5.59,0,0,1-5,0,14,14,0,0,1-4.3-5.26,21.76,21.76,0,0,1-.49-4.83Z"/><path class="cls-7" d="M174,252.61c.19.63.41,1.25.6,1.88h-3.47v5.15h4.52c.54,5.52.8,15.45,1.25,18.24l.62,10.93.11,2a23.94,23.94,0,0,0-.11,2.55c-.07,1.56-.23,3.13-.26,4.71-.07,3.18-.17,6.35-.13,9.54s.33,6.57.34,9.86c0,1.59.09,3.15.19,4.73.07,1,.05,3,.66,3.81.36.54,13.63-.1,13.63-.1s.46-3.44.57-4.42c.2-1.53.32-3.06.43-4.61a170.85,170.85,0,0,0,.22-17.82,36.68,36.68,0,0,0-.75-7.24c-.07-.32-.14-.65-.22-1v-2.68l.36-5.9c.1-.61.18-1.23.27-1.85.52-4.15.69-8.33,1-12.5s.38-8.55.67-12.81c0-.83.16-1.67.2-2.52Z"/><path class="cls-4" d="M174.13,155.31c-9.3,0-9.87,7.51-9.87,14.2,0,4.41,2.86,9.09,2.86,9.09s3.92,3.78,5,4.06h4c.85-.21,4.3-3.4,4.3-3.4s3.59-5,3.59-9.75C184.06,162.82,184.06,155.31,174.13,155.31Z"/><path class="cls-8" d="M178.63,156a16.53,16.53,0,0,0,.09,6,8.61,8.61,0,0,0-3.2-.13c-2.3.24-5.25,1.44-7.53.54-.1,0-.18,0-.15.15.56,1.74,3.68,1.49,5.07,1.35a20,20,0,0,1,4.83-.17,3.75,3.75,0,0,1,2.12,1.28l.24.43a10.83,10.83,0,0,1,.59,8.51c-.59,1.73-2.51,3.09-3.87,4.64-1.43,1.8-4,2.42-6.62,2.82a8,8,0,0,0,1.93,1.28h4c.85-.21,4.3-3.4,4.3-3.4s3.59-5,3.59-9.75C184.06,164.05,184.06,158,178.63,156Z"/><path class="cls-4" d="M165.57,169.72c.33,1.44,0,2.76-.84,2.93s-1.7-.84-2-2.28,0-2.75.85-2.93S165.3,168.27,165.57,169.72Z"/><path class="cls-8" d="M182.75,169.72c-.33,1.44.06,2.76.85,2.93s1.7-.84,2-2.28,0-2.75-.85-2.93S183.07,168.27,182.75,169.72Z"/><path class="cls-9" d="M184.68,158.55c-1.32-4-5.73-5.44-10.58-5.21-4.85-.23-9.25,1.24-10.57,5.21-.49,1.47,0,7.45.39,8.95.26.9,1.11,5.18,1.42,2.09,0-.58.45-5.86,1.1-6.82,1.29-2,3.21-2.1,4.3-1.45a8.88,8.88,0,0,0,6.79,0c1.1-.65,3-.56,4.3,1.45.62,1,1.11,6.24,1.11,6.82.31,3.09,1.16-1.19,1.42-2.09C184.7,166,185.17,160,184.68,158.55Z"/><path class="cls-9" d="M183.85,156.87c-2-3.12-7.24-5.8-13.92-4.49a6.17,6.17,0,0,0-4.7,3.48c-3.06,1.7-1.44,5.8.81,6.21a9.49,9.49,0,0,1,1.27.54,6.9,6.9,0,0,0,2.75.16c3-.25,6.4-1.11,9.39-.56a8.32,8.32,0,0,1,5.2,3C184.74,165.3,185.42,159.31,183.85,156.87Z"/><polygon class="cls-4" points="144.44 220.98 144.01 231.58 144.28 253.39 149.61 251.6 151.46 231.47 154.09 222.17 144.44 220.98"/><path class="cls-2" d="M148.19,258.22l.06-1.78a.86.86,0,0,1,.1-.33,7,7,0,0,1,.07-.79,1.66,1.66,0,0,1-.77-.3,12.27,12.27,0,0,1-1.11-1.28c-.09-.11-.18-.22-.26-.34a1.32,1.32,0,0,1-.28-.25c-.34.46-.69.92-1,1.38a4.43,4.43,0,0,1-.29.42l.64,1c0,1.23.11,4,.11,4l1.3,2.57s.41,2.32.88,2.54a.65.65,0,0,0,.57-.32,2.2,2.2,0,0,0,.46-1.71c-.18-.56-.6-1.91-.6-1.91Z"/><path class="cls-2" d="M148.19,258.22l.06-1.78a.86.86,0,0,1,.1-.33,7,7,0,0,1,.07-.79,1.66,1.66,0,0,1-.77-.3,12.27,12.27,0,0,1-1.11-1.28c-.09-.11-.18-.22-.26-.34a1.32,1.32,0,0,1-.28-.25c-.34.46-.69.92-1,1.38a4.43,4.43,0,0,1-.29.42l.64,1c0,1.23.11,4,.11,4l1.3,2.57s.41,2.32.88,2.54a.65.65,0,0,0,.57-.32,2.2,2.2,0,0,0,.46-1.71c-.18-.56-.6-1.91-.6-1.91Z"/><path class="cls-10" d="M191.61,214.88l1.65,9,11-3-6.51-26.59a39.42,39.42,0,0,0-3.44-5.05l-.08-.06c-.88-.75-8.42-3.07-12.25-4.6-.14.23-2.69,5.15-6.34,5.68a8.18,8.18,0,0,1-5.68-1.22,37.26,37.26,0,0,1-4-4.35c-3.85,1.45-10.87,3.52-12,4.55-.58.52-3,3.83-3,3.83l-7,27.81,10.93,2.4,1.79-9.38c-.07,2.95.61,9.75,0,16.95-1,10.69-2.6,22.5-2.6,22.5L195,253s-2.15-12-3.13-22.93C191.28,223.78,191.67,217.5,191.61,214.88Z"/><path class="cls-11" d="M162.9,236.59a46.69,46.69,0,0,0-6.18-22.2c0,3.13.59,9.6,0,16.42C158.68,232.87,160.89,234.82,162.9,236.59Z"/><path class="cls-12" d="M191.59,217.11a6.57,6.57,0,0,0-.07,2.65,6.57,6.57,0,0,1,.07-2.65v-2.2l.18,1c.1-.9,0-1.5-.85-1.33-1.74.2-2.71,3.31-3.09,5.61-1.55,7.36-1.75,14.71-7.35,19.93-2.52,2.31-5,4.83-8.32,6-5.62,1.93-11.56,4.19-17.66,4.16-.26,2-.43,3.17-.43,3.17L194.9,253s-2.14-12-3.12-22.93A122.36,122.36,0,0,1,191.59,217.11Z"/><path class="cls-4" d="M150.21,260.94c.36,0,.79-.27.88-.94l.16-1.31h0l.2-1.95c-.17-.34-1.46-5.32-1.46-5.32l-.87-2.21-3.22.16c0,.08-.6,4.3.56,5.06a20.94,20.94,0,0,1,3.06,3v1.72C149.36,260.54,149.78,260.9,150.21,260.94Z"/><path class="cls-4" d="M147.26,249.5l-1.1.73-1.36,1.2-2,5.92,1.92,4.91,2.55,2.61a.53.53,0,0,0,.74.09.54.54,0,0,0,.09-.75L145.71,260s-.36-5.52,1.67-4.79C148.66,255.63,147.24,249.5,147.26,249.5Z"/><path class="cls-4" d="M203.74,278.93c-3.16,1-10.41,1.48-13.57.45-1.21,4.62.9,10.59.46,17.11a114.58,114.58,0,0,0-.22,17c.19,2.31.41,4.56.64,6.75h0c0,.38.08.76.11,1.11v.43h0c1.1,9.93,2.21,17.83,2.26,19.8,0,.39-.29,2.06-.56,3.47-.22,1.16,2.37,6.52,2.37,6.52l4.12-3.43a15.45,15.45,0,0,0,.54-4.06,7.25,7.25,0,0,1-.61-3c0-2.15,1.1-9.81,2.21-19.33h0c.28-2.53.57-5.19.83-7.92a82.77,82.77,0,0,0-.11-16.73C201.63,290.33,205,283.83,203.74,278.93Z"/><path class="cls-4" d="M218.82,279.38c-3.16,1-10.4.58-13.57-.45-1.28,4.9,2.11,11.45,1.41,18.2a83.51,83.51,0,0,0-.12,16.73c.23,2.2.45,4.3.7,6.36h0c1.1,10.23,2.46,18.67,2.42,20.87a7.06,7.06,0,0,1-.61,3,15.46,15.46,0,0,0,.55,4.06l4.13,3.43s2.58-5.36,2.35-6.52c-.26-1.41-.56-3.08-.56-3.47,0-2.07,1.33-10.75,2.43-21.36h0c.22-2.2.45-4.41.65-6.75a113.22,113.22,0,0,0-.23-17C217.92,290,220,284,218.82,279.38Z"/><path class="cls-9" d="M216.69,187.15a11.74,11.74,0,0,0-11.94-11.44V198.6A11.75,11.75,0,0,0,216.69,187.15Z"/><path class="cls-9" d="M204.65,175.7a11.47,11.47,0,0,0-1.23,22.9q.62,0,1.23,0h.1V175.71Z"/><path class="cls-4" d="M193.92,222.05c-.12.48-.25.95-.36,1.43A5.88,5.88,0,0,0,193.92,222.05Z"/><path class="cls-4" d="M191.69,225.44a5,5,0,0,0,.2-.69.62.62,0,0,1-.41.24C191.56,225.15,191.61,225.3,191.69,225.44Z"/><path class="cls-4" d="M193.86,207a10.8,10.8,0,0,0-7.58,2.51,10.15,10.15,0,0,0-2.48,3.05c0,.07-.08.14-.11.21a17.88,17.88,0,0,0-1.49,3.49,42,42,0,0,0-1.1,7.29,34.79,34.79,0,0,0-.63,7.34c0,1.37-.14,7.85-.3,9.07-.15.93-.26,1.86-.38,2.77a44.21,44.21,0,0,0-1.56,6.22,9.86,9.86,0,0,0-.38,2.91c0,.44.35,15.29.35,15.29l4.12-.09,3-15.45a30.39,30.39,0,0,0,1.29-5.22c0-.39.35-3.92.5-5.27a45,45,0,0,1,.81-5.16c.33-1.6,2.12-11.52,2.49-13.13,0,0,.06.43.16,1a.3.3,0,0,1,.31.07c.55-1,1.1-2,1.7-3.05.29-.72.54-1.44.77-2.21a12.76,12.76,0,0,0-.81-1.86h-.07c-1.82-.54-2.69-2.48-3.16-4.17a3.72,3.72,0,0,0-.67-1.73l-.08-.08a9.16,9.16,0,0,1,1.82-.71,16.15,16.15,0,0,1,3.46-.37C195.42,209.59,195.34,207.15,193.86,207Z"/><path class="cls-2" d="M181,273.6l.16-1.63a.73.73,0,0,1,.11-.31,3.58,3.58,0,0,1,.11-.73,1.26,1.26,0,0,1-.66-.33,9.41,9.41,0,0,1-1-1.24,1.24,1.24,0,0,1-.23-.32.82.82,0,0,1-.25-.24c-.34.41-.69.81-1,1.23l-.29.36.55.95c0,1.1-.13,3.71-.13,3.71l1.1,2.47s.24,2.15.67,2.38a.65.65,0,0,0,.54-.27,2,2,0,0,0,.52-1.57c-.14-.51-.46-1.79-.46-1.79Z"/><path class="cls-4" d="M182.66,276.24a.9.9,0,0,0,.88-.81c.13-.58.2-1.21.2-1.21h0l.31-1.8c-.14-.33-1-5-1-5l-.69-2.14h-3c0,.07-.8,3.93.23,4.71a20,20,0,0,1,2.68,3s-.09,1.22-.13,1.59C181.91,275.79,182.28,276.17,182.66,276.24Z"/><path class="cls-4" d="M180.59,265.45l-1,.61-1.29,1-2.21,5.36,1.5,4.65,2.21,2.57a.5.5,0,0,0,.69.13h0a.52.52,0,0,0,.1-.69l-1.94-4s0-5.12,1.81-4.33C181.53,271.24,180.55,265.52,180.59,265.45Z"/><path class="cls-4" d="M231.79,248.92a49.35,49.35,0,0,0-1.6-6.22c-.11-.91-.23-1.84-.35-2.77-.19-1.22-.32-7.72-.32-9.07a35.45,35.45,0,0,0-.62-7.34,44,44,0,0,0-1.1-7.29,18.47,18.47,0,0,0-1.48-3.49l-.14-.21a9.75,9.75,0,0,0-2.48-3.05,10.81,10.81,0,0,0-7.57-2.51c-1.49.18-1.55,2.62,0,2.69a15.9,15.9,0,0,1,3.44.38,9.33,9.33,0,0,1,1.84.71l-.08.07a3.79,3.79,0,0,0-.67,1.74c-.48,1.68-1.35,3.63-3.16,4.17h-.08a14.37,14.37,0,0,0-1.27,3.5c-.53,2.38,3.41,2.51,3.41,2.51.36,1.61,2.21,11.53,2.49,13.13a47.52,47.52,0,0,1,.82,5.17c.15,1.34.48,4.87.48,5.26a29.28,29.28,0,0,0,1.29,5.22l3,15.45,4.13.1s.35-14.85.35-15.3A10.93,10.93,0,0,0,231.79,248.92Z"/><path class="cls-2" d="M229.09,273.6l-.18-1.63a.73.73,0,0,0-.11-.31,3.56,3.56,0,0,0-.09-.73,1.31,1.31,0,0,0,.64-.33,9,9,0,0,0,1.06-1.24,1.86,1.86,0,0,0,.23-.32.82.82,0,0,0,.25-.24c.34.41.68.81,1,1.23.1.12.19.24.3.36l-.54.95c0,1.1.11,3.71.11,3.71l-1.11,2.47s-.22,2.15-.65,2.38a.67.67,0,0,1-.55-.27,2,2,0,0,1-.51-1.57l.46-1.79Z"/><path class="cls-4" d="M227.36,276.24a.92.92,0,0,1-.87-.81l-.21-1.21h0l-.29-1.8c.13-.33,1.1-5,1.1-5l.67-2.14h3c0,.07.8,3.93-.22,4.71a20.39,20.39,0,0,0-2.67,3s.06,1.22.12,1.59C228.12,275.79,227.76,276.17,227.36,276.24Z"/><path class="cls-4" d="M229.45,265.45l1,.61,1.32,1,2.21,5.36-1.5,4.64-2.21,2.57a.49.49,0,0,1-.68.13h0a.48.48,0,0,1-.1-.69h0l1.93-4s0-5.12-1.8-4.34C228.51,271.24,229.48,265.52,229.45,265.45Z"/><path class="cls-13" d="M207.24,352.87l.07,1.27,2.74,2.15,3.61.13s2.34-1.42,3.1-2.07l.08-.92-.61-2.94Z"/><path class="cls-13" d="M215.92,345.84c-1.39-1.65-2.81.9-4.29.5-.82-.22-1.78-1.29-2.42-.86a2.65,2.65,0,0,0-.71,1.39l-1.26,6s2.37,2,2.39,2l3.65.19s3.06-1.25,3.56-1.61l-.26-6.31Z"/><path class="cls-13" d="M215.07,349.11a3.07,3.07,0,0,1-2.73,3.32h0a3.07,3.07,0,0,1-2.74-3.32v-1.67a3.05,3.05,0,0,1,2.74-3.31h0a3.06,3.06,0,0,1,2.73,3.31Z"/><path class="cls-13" d="M216.07,343.44c-.85-.33-1.8.78-2.27,1.33a6.34,6.34,0,0,0-1.1,1.65,7.26,7.26,0,0,0-1.1-1.49c-.64-.73-1.66-1.76-2.71-1.73-1.26,0-1.1,1.75-.88,2.57a2.62,2.62,0,0,0,1.46,1.53,8.68,8.68,0,0,0,3.16.81.33.33,0,0,0,.32-.2,4.42,4.42,0,0,0,3.24-1.79C216.77,345.44,217.17,343.86,216.07,343.44Zm-7.41,2.21c-.28-.63-.37-2.21.67-1.77a5.33,5.33,0,0,1,2,1.71,5.21,5.21,0,0,1,1.1,1.78,12,12,0,0,1-2.21-.51,2.2,2.2,0,0,1-1.58-1.18Zm7.16.13a3.45,3.45,0,0,1-2.84,1.45h0a6,6,0,0,1,2.52-3.31.49.49,0,0,1,.66.18.61.61,0,0,1,.05.12,1.7,1.7,0,0,1-.35,1.6Z"/><path class="cls-13" d="M201.72,352.87l-.08,1.27-2.76,2.15-3.58.13s-2.34-1.42-3.1-2.07l-.08-.92.61-2.94Z"/><path class="cls-13" d="M193.08,345.84c1.39-1.65,2.81.9,4.27.5.84-.22,1.79-1.29,2.44-.86a2.78,2.78,0,0,1,.72,1.39l1.25,6s-2.38,2-2.4,2l-3.63.19s-3-1.25-3.57-1.61l.23-6.31Z"/><path class="cls-13" d="M193.92,349.11a3.07,3.07,0,0,0,2.73,3.32h0a3.08,3.08,0,0,0,2.75-3.32v-1.67a3.07,3.07,0,0,0-2.75-3.31h0a3.06,3.06,0,0,0-2.73,3.31Z"/><path class="cls-13" d="M192.75,346.12a4.38,4.38,0,0,0,3.23,1.79.36.36,0,0,0,.34.2,8.83,8.83,0,0,0,3.16-.81,2.56,2.56,0,0,0,1.44-1.53c.24-.82.37-2.54-.87-2.57s-2.06,1-2.7,1.73a6.92,6.92,0,0,0-1.1,1.49,6,6,0,0,0-1.11-1.65c-.47-.55-1.41-1.66-2.26-1.33C191.79,343.86,192.22,345.44,192.75,346.12Zm6,.78a11.22,11.22,0,0,1-2.21.5,7.35,7.35,0,0,1,3.15-3.48c1-.41,1,1.1.66,1.76A2.22,2.22,0,0,1,198.72,346.9Zm-6-2.64a.48.48,0,0,1,.59-.34l.11,0a6,6,0,0,1,2.53,3.31h0a3.37,3.37,0,0,1-2.83-1.44A1.71,1.71,0,0,1,192.75,344.26Z"/><path class="cls-9" d="M216.48,188.4h-5.86l.12-.69-17.91.69c-5.91,30.47.78,30.9,9.93,30.9l3-.06c.28,0,.53.06.82.06C215.68,219.24,222.39,218.87,216.48,188.4Z"/><path class="cls-2" d="M209.91,203.87c.09.54.17,1.1.3,1.74H199.09c.12-.61.22-1.2.3-1.74a20.26,20.26,0,0,0,.24-3.11v-.08a25.34,25.34,0,0,0-.54-4.59h11.12c-.19,1-.32,1.81-.4,2.61A17.92,17.92,0,0,0,209.91,203.87Z"/><path class="cls-2" d="M216.74,208.55c0,2.87-5.42,5.21-12.14,5.21s-12.14-2.34-12.14-5.21c0-2.05,2.8-3.84,6.83-4.68a24.61,24.61,0,0,1,3.31-.45c.63,0,1.27-.06,2-.06a25.74,25.74,0,0,1,5.25.51,20.62,20.62,0,0,1,2.66.75h0C215.12,205.57,216.74,207,216.74,208.55Z"/><path class="cls-3" d="M212.62,210c-1.19.09-4.31-2.07-7.2-4.33-1-.74-1.89-1.52-2.72-2.21-1.59-1.33-2.79-2.39-3.07-2.66l-.06-.07h.06c.71-.16,7.89-1.8,10.18-2a17.92,17.92,0,0,0,.1,5.17,20.62,20.62,0,0,1,2.66.75h0C213.35,207.27,213.86,209.85,212.62,210Z"/><path class="cls-4" d="M212.75,191.94c0,5.87-3.64,10.63-8.14,10.63s-8.17-4.76-8.17-10.63.49-12.46,8.17-12.46C212.75,179.48,212.75,186.08,212.75,191.94Z"/><path class="cls-8" d="M204.65,179.48a8.41,8.41,0,0,0-4.31,1,8,8,0,0,0,3.43,6.51c2.21,1.35,4.42,1.92,5.85,4.07,1.28,1.74.74,4.27-.37,6v.08a8.56,8.56,0,0,1-2.7,3.43c-2.06,1.54-4.28.89-6.42,0l-.21-.07a7,7,0,0,0,4.79,2c4.5,0,8.14-4.76,8.14-10.63S212.75,179.48,204.65,179.48Z"/><path class="cls-4" d="M197.38,190.74c.28,1.24,0,2.34-.73,2.5s-1.44-.71-1.72-1.94,0-2.33.72-2.48S197.11,189.54,197.38,190.74Z"/><path class="cls-9" d="M205.28,178.16c-3.9,4-6.24,4.25-3.75,5.69,2,1.18,7.48,3.54,11.32,8.2.51.62,1.38-7.56-.82-11S206.38,177.05,205.28,178.16Z"/><path class="cls-13" d="M221.86,251.56h0c-1.41-6.34-4.51-10.27-4.31-16.94.12-3.06.12-6.45.78-8.26a4,4,0,0,1,.89-1.38s2.94-12.3,2.48-16.43c-.32-2.89-9.68-4.27-9.68-4.27s-.19,6.1-1.66,7.44a9.75,9.75,0,0,1-10.81,0c-1.47-1.34-1.66-7.44-1.66-7.44s-9.36,1.38-9.68,4.27c-.44,4.13,2.47,16.43,2.47,16.43a3.84,3.84,0,0,1,.9,1.38c.67,1.81.66,5.2.76,8.26.23,6.67-2.88,10.6-4.28,16.94h0c-4.24,11-.72,45-.86,49.3h35.49C222.56,296.59,226.08,262.63,221.86,251.56Z"/><path class="cls-13" d="M221.86,251.56h0c-1.41-6.34-4.51-10.27-4.31-16.94.12-3.06.12-6.45.78-8.26a4,4,0,0,1,.89-1.38s2.94-12.3,2.48-16.43c-.07-.75-.79-1.41-1.78-2-.36,6.88-.81,13.86-4,20-1.74,3.51-6.21,3.11-9.93,4.09-1.36.38-5.69.67-4.72,1.25,2.53,1.95,6.67-.1,9.19,2.44,9.93,10.3,7,39,3.12,51.48-1.17,4.27-5.05,7.57-9.14,9.12-5.52,2.31-11.54,1.7-17.56,1.15a47.12,47.12,0,0,1,.3,4.74h35.5C222.56,296.59,226.08,262.63,221.86,251.56Z"/><path class="cls-9" d="M205.58,180.82c-.11-1.26-1.52-1.72-2.49-2.21a7,7,0,0,0-2.92-.66,6.39,6.39,0,0,0-4.24,1.39c-2.14,1.8-2.86,4.79-3.65,7.35a62.06,62.06,0,0,0-2.08,13.13,25.48,25.48,0,0,1-.38,3.25,19.86,19.86,0,0,0-.44,3.16,17.92,17.92,0,0,0,.09,2.07,13.47,13.47,0,0,0,0,2.2,14.88,14.88,0,0,0,.93,4.06c1.1,2.95,4,3.6,6.68,4.63.71.28,2.42-1.17,2.33-1.68-.21-1.1-.65-2.21-.91-3.31s-.53-2.48-.79-3.74c-.45-2.49-.77-5-1.1-7.53a34,34,0,0,1-.33-7.54,17.06,17.06,0,0,1,.8-3.67c.2-.55.4-1.1.62-1.65a.77.77,0,0,1,.15-.32l.1.28a.58.58,0,0,0,.77.3.63.63,0,0,0,.22-.18c1-1.43,1.1-3.24,2.27-4.61a12.66,12.66,0,0,1,2.73-2.64,1,1,0,0,0,.45-.14l.14-.06a2.68,2.68,0,0,0,.28-.18l.14-.06a.34.34,0,0,0,.26-.35A1.76,1.76,0,0,0,205.58,180.82Z"/><path class="cls-9" d="M219.93,206.23a21.08,21.08,0,0,0-.44-3.16,25.5,25.5,0,0,1-.39-3.25A60.19,60.19,0,0,0,217,186.69c-.79-2.56-1.51-5.52-3.67-7.35a6.27,6.27,0,0,0-4.22-1.39,7,7,0,0,0-2.93.66c-1,.49-2.39.95-2.47,2.21a1.15,1.15,0,0,0,0,.37c.21.15.41.31.62.45a16.08,16.08,0,0,0,2,1.19,15.65,15.65,0,0,1,4.21,2.9,7.21,7.21,0,0,1,2.06,3.72c.14.94.23,5,.3,5.84a33.38,33.38,0,0,1-.34,7.54c-.32,2.52-.65,5-1.1,7.53-.23,1.26-.48,2.51-.77,3.74s-.7,2.21-.91,3.31c-.1.51,1.61,2,2.33,1.68,2.64-1,5.52-1.68,6.69-4.62a15,15,0,0,0,.91-4.07,13.47,13.47,0,0,0,0-2.2A14.39,14.39,0,0,0,219.93,206.23Z"/><polygon class="cls-4" points="172.19 235.12 172.63 245.79 172.35 267.7 167 265.88 165.16 245.67 162.5 236.34 172.19 235.12"/><path class="cls-2" d="M168.43,272.53l-.07-1.76a.86.86,0,0,0-.1-.35,5.29,5.29,0,0,0-.06-.8,1.55,1.55,0,0,0,.73-.32,10.9,10.9,0,0,0,1.16-1.29,3.92,3.92,0,0,0,.27-.33,1.27,1.27,0,0,0,.27-.25c.35.44.7.91,1,1.38l.28.42-.64,1c0,1.25-.1,4-.1,4l-1.32,2.59s-.4,2.33-.88,2.54a.65.65,0,0,1-.57-.31,2.19,2.19,0,0,1-.46-1.73l.61-1.89Z"/><path class="cls-4" d="M166.41,275.28a1,1,0,0,1-.9-1c0-.48-.14-1.31-.14-1.31h0l-.21-2c.17-.34,1.46-5.34,1.46-5.34l.87-2.26,3.23.16c0,.08.6,4.32-.55,5.08a22.27,22.27,0,0,0-3.08,3.06v1.73C167.25,274.88,166.84,275.22,166.41,275.28Z"/><path class="cls-4" d="M169.35,263.73l1.11.72,1.34,1.21,2.07,5.94-2,4.92s-2.54,2.63-2.57,2.63a.5.5,0,0,1-.72.12l0,0a.54.54,0,0,1-.06-.75l2.35-4.19s.36-5.52-1.67-4.81C168,269.94,169.39,263.85,169.35,263.73Z"/><path class="cls-13" d="M126.3,340.62a26.57,26.57,0,0,0-.48,5.77c.2,1.1,1.59,3.83,2.41,4.31a5.61,5.61,0,0,0,5.05,0c1.2-.56,3.82-3.81,4.31-5.28a21.86,21.86,0,0,0,.5-4.84Z"/><path class="cls-14" d="M126.45,339.23A25.86,25.86,0,0,0,126,345a10.27,10.27,0,0,0,2.38,4.32,5.66,5.66,0,0,0,5.07,0c1.21-.55,3.82-3.81,4.33-5.27a23.08,23.08,0,0,0,.49-4.83Z"/><path class="cls-13" d="M123.05,266.7c.06.92.17,1.84.23,2.73.29,4.28.38,8.57.68,12.86s.45,8.39,1,12.57c.06.6.16,1.22.26,1.84l.37,5.91v2.71c-.1.33-.17.65-.26,1a38.44,38.44,0,0,0-.73,7.26,167,167,0,0,0,.23,17.9c.11,1.54.23,3.08.41,4.62.13,1,.58,4.42.58,4.42s13.32.66,13.69.12c.61-.87.6-2.83.67-3.83.11-1.61.17-3.17.18-4.76,0-3.31.32-6.62.36-9.93s-.08-6.4-.15-9.59c0-1.57-.19-3.15-.26-4.73,0-.85,0-1.7-.1-2.55l.1-2,.63-11c.55-3.39.81-17.65,1.67-21.29.36-1.45.88-2.85,1.28-4.29Z"/><path class="cls-13" d="M160.15,340.62a25.94,25.94,0,0,1,.46,5.77,10,10,0,0,1-2.38,4.31,5.68,5.68,0,0,1-5.08,0,14.07,14.07,0,0,1-4.3-5.28,22.47,22.47,0,0,1-.5-4.84Z"/><path class="cls-14" d="M160,339.23a25.86,25.86,0,0,1,.47,5.76c-.19,1.1-1.59,3.83-2.39,4.32a5.68,5.68,0,0,1-5.08,0c-1.19-.55-3.81-3.81-4.3-5.27a21.83,21.83,0,0,1-.5-4.83Z"/><path class="cls-13" d="M142.59,266.9c.4,1.37.9,2.71,1.23,4.1.85,3.6,1.1,17.9,1.69,21.28l.6,11,.11,2c-.11.85-.06,1.78-.11,2.55-.06,1.58-.22,3.17-.25,4.73-.08,3.19-.17,6.4-.14,9.59s.34,6.62.35,9.94c0,1.58.09,3.14.19,4.75.06,1,.06,3,.66,3.83.36.54,13.69-.12,13.69-.12s.45-3.45.58-4.41c.2-1.55.32-3.08.42-4.63a169.65,169.65,0,0,0,.22-17.9,38.45,38.45,0,0,0-.74-7.26l-.24-1v-2.7l.37-5.92c.1-.62.19-1.23.28-1.84.52-4.17.69-8.37,1-12.57s.38-8.57.68-12.86c0-.82.16-1.67.21-2.52Z"/><rect class="cls-15" x="138.09" y="268.79" width="11.47" height="5.18"/><rect class="cls-2" x="136.73" y="188.38" width="11.94" height="10.52"/><polygon class="cls-2" points="150.65 198.7 143.92 209.64 129.73 201.94 134.58 198.79 136.73 197.97 136.73 195.26 148.67 195.26 148.67 197.99 150.65 198.7"/><path class="cls-4" d="M142.7,168.15c-9.33,0-9.93,7.54-9.93,14.26,0,4.41,2.89,9.12,2.89,9.12s3.92,3.8,5.05,4.07h4c.85-.2,4.32-3.4,4.32-3.4s3.61-5,3.61-9.79C152.61,175.69,152.61,168.15,142.7,168.15Z"/><path class="cls-4" d="M134.8,184.47c.32,1.44-.05,2.76-.86,2.94s-1.71-.83-2.05-2.3.05-2.76.85-2.94S134.46,183,134.8,184.47Z"/><path class="cls-4" d="M150.53,184.47c-.32,1.44,0,2.76.85,2.94s1.72-.83,2-2.3,0-2.76-.85-2.94S150.85,183,150.53,184.47Z"/><polygon class="cls-4" points="112.85 235.12 112.42 245.79 112.69 267.7 118.04 265.88 119.89 245.67 122.55 236.34 112.85 235.12"/><path class="cls-2" d="M116.63,272.53l.06-1.76a.86.86,0,0,1,.1-.35,4.25,4.25,0,0,1,.07-.8,1.54,1.54,0,0,1-.74-.32A10.9,10.9,0,0,1,115,268a3.92,3.92,0,0,1-.27-.33,2.16,2.16,0,0,1-.27-.25c-.35.44-.69.91-1,1.38a3.74,3.74,0,0,1-.27.42l.65,1c0,1.25.1,4,.1,4l1.31,2.59s.41,2.33.87,2.54a.69.69,0,0,0,.59-.31,2.19,2.19,0,0,0,.45-1.73c-.19-.56-.61-1.89-.61-1.89Z"/><path class="cls-4" d="M118.64,275.28a1,1,0,0,0,.9-1,9.84,9.84,0,0,1,.15-1.31h0l.2-2c-.17-.34-1.46-5.34-1.46-5.34l-.87-2.26-3.24.16c0,.08-.59,4.32.55,5.08a21.73,21.73,0,0,1,3.08,3.06v1.73C117.85,274.88,118.22,275.22,118.64,275.28Z"/><path class="cls-4" d="M115.65,263.73l-1.11.72-1.34,1.21-2,5.91,1.94,4.91,2.56,2.64a.53.53,0,0,0,.74.12l0,0a.54.54,0,0,0,.06-.75l-2.35-4.19s-.36-5.52,1.68-4.82C117.1,269.94,115.65,263.85,115.65,263.73Z"/><path class="cls-16" d="M160.28,229.13l1.66,9,11.09-3-6.56-26.76a37.86,37.86,0,0,0-3.44-5.06l-.08-.06c-.9-.78-8.46-3.08-12.3-4.63-.17.23-2.72,5.17-6.39,5.7a8.18,8.18,0,0,1-5.68-1.22,34.85,34.85,0,0,1-4-4.41c-3.88,1.47-10.9,3.54-12.14,4.59-.58.51-3,3.83-3,3.83l-7,28,11,2.39,1.8-9.41c-.07,3,.62,9.8,0,17-1,10.74-2.61,22.61-2.61,22.61l41-.39s-2.15-12-3.13-23C160,238.07,160.35,231.76,160.28,229.13Z"/><path class="cls-17" d="M131.45,250.92a47.23,47.23,0,0,0-6.19-22.29c0,3.15.58,9.65,0,16.49C127.28,247.2,129.38,249.16,131.45,250.92Z"/><path class="cls-18" d="M160.27,231.37a6.62,6.62,0,0,0-.09,2.66,6.62,6.62,0,0,1,.09-2.66v-2.21l.18,1c.1-.9,0-1.5-.85-1.34-1.76.2-2.73,3.31-3.11,5.63-1.55,7.38-1.75,14.76-7.39,20-2.51,2.32-5,4.85-8.35,6-5.64,1.94-11.59,4.2-17.73,4.17-.25,2-.41,3.2-.41,3.2l41-.4s-2.15-12-3.14-23A121.11,121.11,0,0,1,160.27,231.37Z"/><path class="cls-9" d="M153.17,174.09c-.08-.32-.17-.64-.28-1a2.2,2.2,0,0,0-.61-.71h-.07a2.87,2.87,0,0,1-.37-.54c-.13-.27-.24-.55-.34-.81a2.66,2.66,0,0,0-1.2-1.56,17.7,17.7,0,0,0-5.08-1.85,8.92,8.92,0,0,0-3.76-.48c-1.29.1-4.27.57-4.62,2.21a3.76,3.76,0,0,0-2.82,1.48,15.5,15.5,0,0,0-1.56,2.3,6.45,6.45,0,0,0-.28.95c-.37,1.37.29,7.61.29,7.61.26.91.66.55,1.11,1.41s.83,2.58,1.1,2.07c0-.75-.32-3.94-.31-4.68,0,0-.53-2.34-.64-3a6.73,6.73,0,0,1,.39-3.08c.86-2.2,3.07-3,5.21-3.4a12.45,12.45,0,0,1,3.09,1.39,8.91,8.91,0,0,0,4.31.82c.88.2,1.78.28,2.66.43.64.1,1.44.08,1.91.59a1.74,1.74,0,0,1,.45.79l.1.51a12.73,12.73,0,0,1-.63,3.77c-.27,1.33-1.28,6.62-.45,7.73l1.1-4.42a1.65,1.65,0,0,0,1.33-1.1S153.5,175.46,153.17,174.09Z"/><path class="cls-19" d="M172.6,277.71a83.87,83.87,0,1,1,83.86-83.87A83.87,83.87,0,0,1,172.6,277.71Zm0-160.61a76.73,76.73,0,1,0,76.71,76.74v0a76.81,76.81,0,0,0-76.71-76.74Z"/><path class="cls-19" d="M172.6,254.32a60.51,60.51,0,1,1,60.49-60.51h0A60.57,60.57,0,0,1,172.6,254.32Zm0-116.23a55.73,55.73,0,1,0,55.71,55.74h0a55.76,55.76,0,0,0-55.71-55.77Z"/><rect class="cls-19" x="169.01" y="135.71" width="7.16" height="10.83"/><rect class="cls-19" x="169.01" y="241.79" width="7.16" height="10.83"/><rect class="cls-19" x="220.21" y="190.57" width="10.83" height="7.16"/><rect class="cls-19" x="114.13" y="190.57" width="10.83" height="7.16"/><path class="cls-20" d="M202.35,177.91l-.55-.18a31.32,31.32,0,0,1,6.42,6.07,24.38,24.38,0,0,0-1.34-3.31,15.87,15.87,0,0,1,3,2.4,13.19,13.19,0,0,0-5.37-5.84l2.71,2.81-2.51-1.58c.48.61.94,1.2,1.39,1.81A11.91,11.91,0,0,0,202.35,177.91Z"/><path class="cls-20" d="M174.54,156.39l-.55-.19a31.65,31.65,0,0,1,6.43,6.07,27.88,27.88,0,0,0-1.33-3.31,16.13,16.13,0,0,1,3,2.4,13.27,13.27,0,0,0-5.38-5.84l2.72,2.8-2.51-1.51,1.41,1.81A11.81,11.81,0,0,0,174.54,156.39Z"/><path class="cls-20" d="M343.83,176.67a6.22,6.22,0,0,0-6.35-6H296.43a6.2,6.2,0,0,0-6.31,6l.13,85a6.2,6.2,0,0,0,6.34,6h41.05a6.22,6.22,0,0,0,6.31-6.05Z"/><path class="cls-21" d="M336.53,176.67a6.22,6.22,0,0,0-6.34-6H289.14a6.19,6.19,0,0,0-6.31,6l.13,85a6.2,6.2,0,0,0,6.33,6h41a6.21,6.21,0,0,0,6.32-6.05Z"/><path class="cls-22" d="M334,182.75a2.49,2.49,0,0,0-2.53-2.43H287.89a2.51,2.51,0,0,0-2.54,2.42l.13,67.57a2.47,2.47,0,0,0,2.52,2.4h43.58a2.48,2.48,0,0,0,2.53-2.41h0Z"/><polygon class="cls-19" points="317.09 183.91 287.54 183.91 287.54 248.98 317.09 248.98 331.78 248.98 331.78 183.91 317.09 183.91"/><rect class="cls-10" x="290.63" y="238.5" width="38.45" height="5.45"/><rect class="cls-13" x="290.63" y="203.54" width="9.78" height="31.46"/><rect class="cls-23" x="304.26" y="194.68" width="9.78" height="40.33"/><rect class="cls-24" x="319.3" y="208.47" width="9.78" height="26.54"/><polygon class="cls-15" points="314.7 183.91 287.54 183.91 287.54 189.04 314.7 189.04 331.78 189.04 331.78 183.91 314.7 183.91"/><rect class="cls-19" x="327.21" y="185.27" width="2.58" height="2.42"/><rect class="cls-19" x="321.78" y="185.27" width="2.59" height="2.42"/><path class="cls-24" d="M315.23,257.89a3.7,3.7,0,0,0-2.54-1h-5.83a3.58,3.58,0,0,0-1.36.27,3.39,3.39,0,0,0-2.2,3.17,3.53,3.53,0,0,0,3.59,3.41h5.83a3.6,3.6,0,0,0,1.37-.27,3.41,3.41,0,0,0,2.21-3.15A3.32,3.32,0,0,0,315.23,257.89Z"/><path class="cls-19" d="M315.63,174.75H303.68a1.35,1.35,0,0,0-.24,2.68h12.21a1.34,1.34,0,1,0,0-2.68Z"/><rect class="cls-20" x="280.61" y="311.07" width="104.83" height="69.32" rx="2.35"/><rect class="cls-21" x="276.2" y="311.07" width="104.83" height="69.32" rx="2.35"/><rect class="cls-25" x="280" y="314.65" width="97.22" height="62.14" rx="2.32"/><path class="cls-26" d="M280,374.47V317a2.31,2.31,0,0,1,2.26-2.37h92.59Z"/><path class="cls-20" d="M311.85,380.38H237v1.35A10.31,10.31,0,0,0,247.33,392H375.15a10.3,10.3,0,0,0,10.3-10.31v-1.35Z"/><path class="cls-20" d="M273.45,380.38H236v1.35A10.3,10.3,0,0,0,246.31,392H336.8a10.31,10.31,0,0,0,10.3-10.31v-1.35Z"/><path class="cls-27" d="M371.45,365.63a4.55,4.55,0,0,1-4.54,4.53H295a4.52,4.52,0,0,1-4.52-4.53h0V293.72a4.52,4.52,0,0,1,4.5-4.53h71.92a4.54,4.54,0,0,1,4.54,4.52h0Z"/><path class="cls-28" d="M366.63,365.63a4.55,4.55,0,0,1-4.53,4.53H290.19a4.53,4.53,0,0,1-4.53-4.53h0V293.72a4.53,4.53,0,0,1,4.51-4.53H362.1a4.53,4.53,0,0,1,4.53,4.53h0Z"/><rect class="cls-13" x="300.34" y="335.56" width="17.04" height="25.16"/><rect class="cls-13" x="320.74" y="324.61" width="17.04" height="36.12"/><rect class="cls-13" x="341.15" y="312.64" width="17.04" height="48.08"/><path class="cls-13" d="M365,366H293a1.57,1.57,0,0,1-1.57-1.58V297.58a1.58,1.58,0,0,1,3.15,0v65.31H365a1.58,1.58,0,1,1,0,3.15Z"/><polygon class="cls-19" points="301.04 325.08 299.63 323.58 318.33 306.17 330.09 315.51 350.32 296.8 351.71 298.31 330.19 318.23 318.44 308.88 301.04 325.08"/><polygon class="cls-19" points="352.92 301.39 355.36 293.53 347.34 295.35 352.92 301.39"/><rect class="cls-29" x="393.3" y="179.03" width="87.92" height="67.8" transform="translate(144.81 601.53) rotate(-79)"/><rect class="cls-30" x="391.26" y="178.75" width="87.92" height="67.8" transform="translate(143.43 599.3) rotate(-79)"/><rect class="cls-22" x="420.53" y="163.38" width="67.8" height="87.91" transform="translate(-33.59 100.89) rotate(-12.22)"/><rect class="cls-31" x="418.77" y="163.7" width="67.8" height="87.92" transform="translate(-33.72 100.6) rotate(-12.23)"/><rect class="cls-32" x="433.64" y="236.28" width="16.68" height="13.69" transform="translate(-40.12 94.68) rotate(-11.7)"/><rect class="cls-13" x="452.61" y="226.33" width="16.7" height="19.66" transform="translate(-38.31 98.38) rotate(-11.7)"/><rect class="cls-24" x="470.56" y="215.9" width="16.7" height="26.16" transform="translate(-36.46 101.78) rotate(-11.69)"/><path class="cls-24" d="M431,209.69a24.92,24.92,0,0,0,23.4,8.82,24.79,24.79,0,0,0,11.77-5.34.8.8,0,0,0,.17-.15h0a24.76,24.76,0,0,0,7.36-10.37,25.09,25.09,0,0,0,1.25-12.87l-24.65,4.08Z"/><path class="cls-13" d="M450.26,193.82l-15.87-19.3a25,25,0,0,1,40.52,15.22Z"/><path class="cls-33" d="M431,209.69l19.3-15.87-15.87-19.3A24.84,24.84,0,0,0,426.87,185h0a25.23,25.23,0,0,0-1.26,12.88h0A24.87,24.87,0,0,0,431,209.69Z"/><g id="_10" data-name=" 10"><path class="cls-34" d="M448.5,227.84l.15-48-64.29-.2a2.55,2.55,0,0,0-1.78.69h0a2.55,2.55,0,0,0-.83,1.9l-.27,85.56,68.34.21a5.39,5.39,0,0,0,.52-.3h0c2.75-1.55,3.5-5.14,3.51-8.62l.08-23Z"/><path class="cls-35" d="M446.32,227.84l.16-48-64.29-.2a2.55,2.55,0,0,0-1.78.69h0a2.6,2.6,0,0,0-.84,1.9l-.26,85.56,68.34.21a5.54,5.54,0,0,0,.53-.3h0c2.74-1.55,3.48-5.14,3.51-8.62l.06-23Z"/><rect class="cls-36" x="402.51" y="221.79" width="64.23" height="8.27" transform="translate(207.42 659.88) rotate(-89.83)"/></g><g id="search"><path class="cls-19" d="M439,83.07a21.09,21.09,0,0,0-15.54,35.31l-2.71,2.73a5.83,5.83,0,0,0-6.45,1.1l-9.85,9.86a6.34,6.34,0,0,0,8.94,8.93l9.85-9.85a5.75,5.75,0,0,0,1.28-5.9l3.24-3.25A21.09,21.09,0,1,0,439,83.07Zm0,37.46a16.39,16.39,0,1,1,16.39-16.38h0A16.38,16.38,0,0,1,439,120.53Z"/></g><rect class="cls-37" x="183.74" y="79.1" width="15.9" height="17.39"/><rect class="cls-37" x="202.66" y="75.53" width="15.9" height="20.96"/><rect class="cls-37" x="221.56" y="67.09" width="15.9" height="29.41"/><path class="cls-37" d="M225.09,60l.6-.65.54-.64.51-.62.28-.36,5.88,3L230,45.72l-13.89,6.46,5.7,2.91-.19.19-.38.6-.45.61c-.29.42-.6.87-1,1.31a34.31,34.31,0,0,1-2.46,2.79l-.71.72c-.13.12-.24.25-.37.36l-.38.36c-.52.47-1,1-1.63,1.42l-.85.71c-.28.24-.6.45-.9.68l-.92.7-1,.65c-.32.21-.64.44-1,.65l-1,.62c-.68.43-1.37.8-2.07,1.19-1.4.76-2.84,1.45-4.3,2.07l-.54.25-.54.21-1.1.43-.28.09h-.25l-.56.19-1.1.38-.54.19c-.19.06-.36.11-.54.15l-1.1.31c-.7.22-1.39.37-2.07.54l-1,.24-.85.34c-.64.14-1.27.27-1.88.35s-1.18.17-1.73.24l-1.58.16c-.5.07-1,.08-1.39.1L184,75h-2.26l.58.07,1.67.17,1.19.08c.43,0,.91.07,1.41.07H190c.63,0,1.27-.06,1.94-.11l.94-.09L194,75c.7-.08,1.44-.16,2.2-.3l1.11-.19a1.17,1.17,0,0,0,.57-.1l.56-.11,1.11-.24.57-.12.62-.16,1.18-.3.59-.15.6-.19c1.59-.46,3.19-1,4.77-1.63.78-.32,1.56-.62,2.34-1l1.1-.53c.39-.18.75-.38,1.1-.57l1.11-.58,1.1-.62,1.1-.63,1-.65c.68-.42,1.32-.89,2-1.35l.48-.34.45-.35.9-.7c1.17-.94,2.2-1.89,3.16-2.82A13.76,13.76,0,0,0,225.09,60Z"/><rect class="cls-29" x="283.69" y="110.27" width="37.72" height="4.77"/><polygon class="cls-20" points="347.66 142.38 318.42 142.38 318.42 148.07 347.66 148.07 376.91 148.07 376.91 142.38 347.66 142.38"/><polygon class="cls-38" points="343.63 103.31 328.08 103.31 328.08 142.38 343.63 142.38 359.18 142.38 359.18 103.31 343.63 103.31"/><polygon class="cls-21" points="328.09 142.38 298.84 142.38 298.84 148.07 328.09 148.07 357.34 148.07 357.34 142.38 328.09 142.38"/><polygon class="cls-20" points="330.63 103.31 315.09 103.31 315.09 142.38 330.63 142.38 346.19 142.38 346.19 103.31 330.63 103.31"/><rect class="cls-39" x="315.09" y="103.31" width="31.1" height="27.68"/><path class="cls-20" d="M397.61,48.11v73.76a2.68,2.68,0,0,1-2.68,2.68H280.63a2.68,2.68,0,0,1-2.68-2.68V48.11a2.68,2.68,0,0,1,2.68-2.68h114.3A2.68,2.68,0,0,1,397.61,48.11Z"/><rect class="cls-21" x="272.91" y="45.43" width="119.66" height="79.12" rx="2.68"/><path class="cls-25" d="M388.21,117.8a2.66,2.66,0,0,1-2.64,2.66H279.89a2.68,2.68,0,0,1-2.65-2.66V52.17a2.64,2.64,0,0,1,2.65-2.63H385.57a2.64,2.64,0,0,1,2.64,2.63Z"/><path class="cls-13" d="M319.79,90.22a21.6,21.6,0,0,0,4-21.27,22.19,22.19,0,0,0-3-5.74,21.71,21.71,0,0,0-3.31-3.53l-.16-.12h0a21.61,21.61,0,0,0-21.13-3.91l7.14,20.44Z"/><path class="cls-24" d="M303.34,76.09,289.22,92.51a21.67,21.67,0,0,1-6.33-9.27,22,22,0,0,1-.82-11.18A21.66,21.66,0,0,1,296.2,55.65Z"/><path class="cls-40" d="M319.79,90.22,303.34,76.09,289.22,92.51a21.41,21.41,0,0,0,10.09,4.85h0a21.68,21.68,0,0,0,11.18-.83h0A21.43,21.43,0,0,0,319.79,90.22Z"/><rect class="cls-10" x="333.79" y="94.37" width="7.82" height="18.11"/><rect class="cls-10" x="343.17" y="86.49" width="7.82" height="25.99"/><rect class="cls-10" x="352.55" y="77.88" width="7.82" height="34.58"/><rect class="cls-10" x="363.12" y="83.13" width="7.82" height="29.35"/><rect class="cls-10" x="372.49" y="96.49" width="7.82" height="15.99"/><path class="cls-15" d="M382.59,115.69H329.37a1,1,0,0,1-.95-1V77.86a1,1,0,0,1,1.91,0v35.91h52.26a1,1,0,0,1,0,1.91Z"/><rect class="cls-29" x="283.69" y="102.15" width="37.72" height="4.77"/><rect class="cls-29" x="328.8" y="55.65" width="54.13" height="5.83"/><rect class="cls-29" x="328.8" y="65.56" width="54.13" height="5.83"/><g id="target"><g id="target-2"><path class="cls-13" d="M455.22,315.13l-3.94,2.5a23.57,23.57,0,1,1-5.24-8.15l4-2.56.17-2a29.78,29.78,0,1,0,7,11Z"/><path class="cls-13" d="M441.82,320.72a13.42,13.42,0,0,1,1.1,5.3,13.69,13.69,0,1,1-3.69-9.3l4.41-2.83a18.87,18.87,0,1,0,2.62,4Z"/><path class="cls-13" d="M433.08,326.24a3.81,3.81,0,1,1-3.8-4,3.49,3.49,0,0,1,1.11.18l4.86-3.1a9,9,0,1,0,3.07,6.74,8.69,8.69,0,0,0-.45-2.77Z"/><path class="cls-13" d="M457.38,314.84l6.1-3.87-5.27-1.82,2.07-1.32a1.41,1.41,0,1,0-1.51-2.37h0l-2,1.28.59-5.43-6.11,3.87-.43,5.36-1.19.76.33-3.08-3.41,2.21-.24,3-17.35,11a1.2,1.2,0,0,0-.36,1.66l.07.09a1.25,1.25,0,0,0,1.71.48h0l17.56-11.11,2.87,1.11,3.4-2.21-2.94-1,1-.62Z"/></g></g></g></svg>